<svg width="159" height="76" viewBox="0 0 159 76" fill="none" xmlns="http://www.w3.org/2000/svg">
<g clip-path="url(#clip0_54_670)">
<path d="M4.93788 63.9896H7.42658L7.46114 62.9099C7.4809 62.2784 7.49077 61.7113 7.49077 61.1814C7.49077 51.7811 15.1149 44.1365 24.4845 44.1365C33.8542 44.1365 41.4783 51.7835 41.4783 61.1814C41.4783 61.7039 41.4881 62.2685 41.5079 62.9074L41.54 63.9871H109.169L109.201 62.9074C109.224 62.2116 109.233 61.5925 109.233 61.0155C109.233 51.8479 117.277 43.8046 126.449 43.8046C135.622 43.8046 143.665 51.8479 143.665 61.0155C143.665 61.59 143.675 62.1893 143.695 62.9049L143.727 63.9871H150.85C153.504 63.9871 156.077 61.6346 155.664 59.1582C155.252 56.6818 151.218 36.7544 151.218 36.7544C150.643 34.3127 149.06 32.6015 146.524 32.0443L115.645 25.6776C113.697 24.2165 98.1183 12.5453 96.7826 11.4508C95.5876 10.4726 91.3707 7.28056 87.3562 7.28056H42.9572C41.972 7.28056 41.0116 7.31028 40.0734 7.37219L35.7577 0.520053C35.4293 1.39605e-05 34.743 -0.155998 34.2245 0.17336C33.706 0.502718 33.5505 1.19115 33.8788 1.71119L37.5921 7.60744C20.3416 9.74208 11.5349 22.0918 5.72548 32.9804C0.123444 43.4827 0.123444 51.4542 0.123444 59.1607C0.123444 61.7336 2.37265 63.9896 4.93788 63.9896ZM7.68582 34.0279C7.73026 33.9437 7.7747 33.8595 7.82161 33.7778H13.1792C13.2804 33.9487 13.3323 34.2161 13.3323 34.6024C13.3323 35.4221 13.3323 37.9208 8.04382 38.6043C7.43646 38.6835 7.00439 39.2407 7.0834 39.8523C7.155 40.4145 7.63397 40.8256 8.18455 40.8256C8.23146 40.8256 8.28083 40.8231 8.32774 40.8157C14.6137 40.0034 15.5543 36.5761 15.5543 34.6049C15.5543 34.3053 15.5321 34.0329 15.4902 33.7803H27.7756C28.3904 33.7803 28.8866 33.2825 28.8866 32.6659C28.8866 32.0493 28.3904 31.5515 27.7756 31.5515H9.05608C15.1988 20.8016 24.7043 9.51178 42.9596 9.51178H54.8031C54.4353 14.3234 52.4972 39.7236 52.3441 42.299C52.07 46.8729 52.9021 50.1219 54.8846 52.2367C56.8376 54.3169 59.9213 55.3272 64.316 55.3272H88.0179C88.6326 55.3272 89.1289 54.8295 89.1289 54.2129C89.1289 53.5962 88.6326 53.0985 88.0179 53.0985H64.316C60.5681 53.0985 58.0128 52.3159 56.5018 50.7088C54.9612 49.0669 54.3266 46.3603 54.5612 42.4327C54.7143 39.8796 56.7092 13.739 57.0326 9.51178H87.3611C90.7263 9.51178 94.6321 12.5676 95.3827 13.1818C96.8394 14.3729 113.799 27.0767 114.519 27.6166L114.717 27.7652L141.979 33.3865C141.972 33.5995 141.964 33.8149 141.964 34.0279C141.964 39.045 143.875 43.3738 146.719 44.8001C146.88 44.8794 147.048 44.919 147.216 44.919C147.623 44.919 148.016 44.6937 148.211 44.3024C148.485 43.7526 148.263 43.0815 147.714 42.8067C145.961 41.9275 144.186 38.629 144.186 34.0254C144.186 33.9635 144.189 33.9016 144.191 33.8397L146.408 34.2731C147.828 34.5826 148.712 35.4716 149.001 36.8733L152.213 53.0935H148.507C147.892 53.0935 147.396 53.5913 147.396 54.2079C147.396 54.8245 147.892 55.3223 148.507 55.3223H152.457C152.524 55.3223 152.591 55.3148 152.652 55.3025C152.652 55.3025 153.346 58.1231 153.442 59.2622C153.536 60.3988 152.247 61.7608 150.852 61.7608H145.895C145.89 61.5033 145.89 61.2581 145.89 61.0179C145.89 55.9067 143.754 51.0208 139.876 47.2592C136.152 43.6486 131.261 41.5784 126.449 41.5784C121.637 41.5784 116.746 43.6486 113.023 47.2592C109.145 51.0208 107.009 55.9067 107.009 61.0179C107.009 61.2557 107.009 61.5033 107.004 61.7608H43.7052C43.7028 61.5603 43.7003 61.3696 43.7003 61.1839C43.7003 50.5552 35.0788 41.9102 24.4845 41.9102C13.8903 41.9102 5.26625 50.5552 5.26625 61.1839C5.26625 61.3721 5.26625 61.5627 5.26132 61.7608H4.93542C3.47627 61.7608 2.34302 60.3642 2.34302 59.1607C2.34302 57.8729 2.34302 56.6001 2.36771 55.3223H3.5775C4.19226 55.3223 4.68852 54.8245 4.68852 54.2079C4.68852 53.5913 4.19226 53.0935 3.5775 53.0935H2.43931C2.70843 47.3607 3.74045 41.4224 7.68335 34.0279H7.68582Z" fill="#263544"/>
<path d="M107.325 45.6916C107.248 46.3033 107.681 46.858 108.29 46.9348C108.337 46.9397 108.384 46.9447 108.429 46.9447C108.982 46.9447 109.458 46.5311 109.53 45.969C110.369 39.2308 108.118 30.405 108.021 30.0335C107.868 29.4367 107.261 29.0801 106.666 29.2336C106.071 29.3872 105.715 29.9964 105.868 30.5932C105.891 30.6798 108.11 39.3744 107.323 45.6941L107.325 45.6916Z" fill="#263544"/>
<path d="M101.597 23.5008C101.597 20.97 96.5802 17.1093 93.5878 15.0316L93.3088 14.836C91.2225 13.3823 89.5758 12.2333 85.1391 12.2333H63.9481C61.3088 12.2333 59.1584 14.3754 59.1337 17.0177L58.6424 23.4166V23.5033C58.6399 26.1654 60.7978 28.3322 63.4543 28.3322H97.2789C99.7824 28.3322 101.6 26.3016 101.6 23.5033L101.597 23.5008ZM60.8595 23.5404L61.3508 17.1489V17.0622C61.3533 15.6284 62.5161 14.462 63.9457 14.462H85.1366C88.877 14.462 90.1362 15.3387 92.0398 16.666L92.3237 16.8641C96.6789 19.8878 99.375 22.6638 99.375 23.5008C99.375 24.6994 98.8244 26.101 97.2764 26.101H63.4519C62.0347 26.101 60.8817 24.9569 60.8595 23.5404Z" fill="#263544"/>
<path d="M24.3191 53.8364C20.2355 53.8364 16.9123 57.1696 16.9123 61.2656C16.9123 65.3615 20.2355 68.6947 24.3191 68.6947C28.4027 68.6947 31.7259 65.3615 31.7259 61.2656C31.7259 57.1696 28.4027 53.8364 24.3191 53.8364ZM24.3191 66.4659C21.4601 66.4659 19.1343 64.1332 19.1343 61.2656C19.1343 58.3979 21.4601 56.0652 24.3191 56.0652C27.1781 56.0652 29.5039 58.3979 29.5039 61.2656C29.5039 64.1332 27.1781 66.4659 24.3191 66.4659Z" fill="#263544"/>
<path d="M126.286 53.8364C122.203 53.8364 118.88 57.1696 118.88 61.2656C118.88 65.3615 122.203 68.6947 126.286 68.6947C130.37 68.6947 133.693 65.3615 133.693 61.2656C133.693 57.1696 130.37 53.8364 126.286 53.8364ZM126.286 66.4659C123.427 66.4659 121.102 64.1332 121.102 61.2656C121.102 58.3979 123.427 56.0652 126.286 56.0652C129.146 56.0652 131.471 58.3979 131.471 61.2656C131.471 64.1332 129.146 66.4659 126.286 66.4659Z" fill="#263544"/>
<path d="M71.7228 31.549H59.625C59.0102 31.549 58.514 32.0468 58.514 32.6634C58.514 33.28 59.0102 33.7778 59.625 33.7778H71.7228C72.3376 33.7778 72.8339 33.28 72.8339 32.6634C72.8339 32.0468 72.3376 31.549 71.7228 31.549Z" fill="#263544"/>
<path d="M50.6035 24.0481C50.9195 22.176 51.6478 15.3536 51.8429 13.3304C51.8725 13.0183 51.7713 12.7063 51.559 12.4735C51.3491 12.2407 51.0504 12.1095 50.7368 12.1095C31.3852 12.1095 21.5786 18.184 19.0603 23.3869C18.4331 24.6821 18.3788 25.7593 18.8973 26.5889C19.4133 27.416 20.4083 27.837 21.8502 27.837H45.7372C48.7024 27.837 50.1566 26.7053 50.6035 24.0506V24.0481ZM20.7811 25.4052C20.7811 25.4052 20.6848 25.1303 21.0576 24.3577C22.8205 20.7149 30.7902 14.6032 49.5048 14.3457C49.2233 17.0796 48.6703 22.1363 48.4111 23.6767C48.1913 24.9891 47.8556 25.6057 45.7347 25.6057H21.8477C20.9836 25.6057 20.7811 25.4052 20.7786 25.4052H20.7811Z" fill="#263544"/>
<path d="M44.3175 72.6569H33.6245C36.9082 69.9527 39.0093 65.8493 39.0093 61.2656C39.0093 53.1406 32.4197 46.5311 24.3191 46.5311C16.2185 46.5311 9.62888 53.1406 9.62888 61.2656C9.62888 65.8493 11.7275 69.9527 15.0136 72.6569H1.11102C0.496258 72.6569 0 73.1547 0 73.7713C0 74.3879 0.496258 74.8856 1.11102 74.8856H18.6405C18.6627 74.8856 18.6825 74.8807 18.7047 74.8782C20.4355 75.5988 22.3316 76 24.3191 76C26.3066 76 28.2027 75.5988 29.9335 74.8782C29.9557 74.8782 29.9755 74.8856 29.9977 74.8856H44.3175C44.9323 74.8856 45.4286 74.3879 45.4286 73.7713C45.4286 73.1547 44.9323 72.6569 44.3175 72.6569ZM11.8509 61.2656C11.8509 54.3689 17.4431 48.7599 24.3191 48.7599C31.1951 48.7599 36.7873 54.3689 36.7873 61.2656C36.7873 68.1623 31.1951 73.7713 24.3191 73.7713C17.4431 73.7713 11.8509 68.1623 11.8509 61.2656Z" fill="#263544"/>
<path d="M157.889 72.6569H135.592C138.876 69.9527 140.977 65.8493 140.977 61.2656C140.977 53.1406 134.387 46.5311 126.286 46.5311C118.186 46.5311 111.596 53.1406 111.596 61.2656C111.596 65.8493 113.695 69.9527 116.981 72.6569H106.288C105.673 72.6569 105.177 73.1547 105.177 73.7713C105.177 74.3879 105.673 74.8856 106.288 74.8856H120.608C120.63 74.8856 120.65 74.8807 120.672 74.8782C122.403 75.5988 124.299 76 126.286 76C128.274 76 130.17 75.5988 131.901 74.8782C131.923 74.8782 131.943 74.8856 131.965 74.8856H157.889C158.504 74.8856 159 74.3879 159 73.7713C159 73.1547 158.504 72.6569 157.889 72.6569ZM113.818 61.2656C113.818 54.3689 119.41 48.7599 126.286 48.7599C133.162 48.7599 138.755 54.3689 138.755 61.2656C138.755 68.1623 133.162 73.7713 126.286 73.7713C119.41 73.7713 113.818 68.1623 113.818 61.2656Z" fill="#263544"/>
<path d="M25.8992 61.2482L27.0325 60.1116C27.467 59.6757 27.467 58.97 27.0325 58.5366C26.5979 58.1008 25.8943 58.1008 25.4622 58.5366L24.329 59.6733L23.1661 58.5044C22.7316 58.0686 22.0279 58.0686 21.5959 58.5044C21.1613 58.9402 21.1613 59.646 21.5959 60.0794L22.7612 61.2482L21.6255 62.3874C21.191 62.8232 21.191 63.529 21.6255 63.9623C21.8428 64.1803 22.1267 64.2892 22.4106 64.2892C22.6945 64.2892 22.9785 64.1803 23.1957 63.9623L24.3315 62.8232L25.4869 63.9846C25.7042 64.2025 25.9881 64.3115 26.272 64.3115C26.556 64.3115 26.8399 64.2025 27.0572 63.9846C27.4917 63.5488 27.4917 62.843 27.0572 62.4096L25.9017 61.2482H25.8992Z" fill="#263544"/>
<path d="M127.867 61.2482L129 60.1116C129.434 59.6757 129.434 58.97 129 58.5366C128.565 58.1008 127.862 58.1008 127.43 58.5366L126.296 59.6733L125.134 58.5044C124.699 58.0686 123.998 58.0686 123.563 58.5044C123.129 58.9402 123.129 59.646 123.563 60.0794L124.729 61.2482L123.593 62.3874C123.158 62.8232 123.158 63.529 123.593 63.9623C123.81 64.1803 124.094 64.2892 124.378 64.2892C124.662 64.2892 124.946 64.1803 125.163 63.9623L126.299 62.8232L127.454 63.9846C127.672 64.2025 127.956 64.3115 128.239 64.3115C128.523 64.3115 128.807 64.2025 129.025 63.9846C129.459 63.5488 129.459 62.843 129.025 62.4096L127.869 61.2482H127.867Z" fill="#263544"/>
</g>
<defs>
<clipPath id="clip0_54_670">
<rect width="159" height="76" fill="white"/>
</clipPath>
</defs>
</svg>
